_________________________  Visit us at _________________________
  
http://p2pdl.com  ____________________________  http://p2pdl.com


I Give It A Year 2013 BRRip 480p x264 AAC - VYTO


Genre: Comedy | Romance
Plot: A look at the trials and tribulations of a newlywed couple during their first year of marriage.
Director: Dan Mazer
Stars: Rose Byrne, Rafe Spall, Alex Macqueen.
Rated: N/a


Info: 
http://www.imdb.com/title/tt2053463/

Trailer:


Format                         : MPEG-4
File size                      : 301 MiB
Duration                       : 1h 37mn
Overall bit rate               : 432 Kbps
Source                         : 720p.BluRay.DTS.x264-PublicHD(Thanks)

Format                         : AVC
Bit rate                       : 388 Kbps
Width                          : 720 pixels
Height                         : 304 pixels
Display aspect ratio           : 2.35:1
Frame rate mode                : Constant
Frame rate                     : 23.976 fps
Color space                    : YUV
Stream size                    : 270 MiB (90%)
Writing library                : x264 core 130 r2273

Audio
Format                         : AAC
Bit rate mode                  : Variable
Bit rate                       : 40.0 Kbps
Channel(s)                     : 2 channels
Channel positions              : Front: L R
Sampling rate                  : 44.1 KHz
Stream size                    : 27.9 MiB (9%)
Language                       : English

Subtitle                       : None
 
http://www.ultraimg.com/images/E36sJ.png 
http://www.ultraimg.com/images/Y5Opr.png 
http://www.ultraimg.com/images/0cERN.png 
http://www.ultraimg.com/images/aj1MY.png 
http://www.ultraimg.com/images/PqK6H.png 
http://www.ultraimg.com/images/BQWb.png

----------------------------------------------------------------------------------------------------


Encoded using revolutionary 10bit encoding, which enables us to provide you more crispier 
and sharper images at small sizes, just make sure you follow our instructions without a fault.
Recommend to you to use latest version of VLC player. Install K-Lite Codec Pack or shark007 codecs
in case of any kind of problem in playback (For non-VLC Media Player users). Alternatively, install
Core AVC codecs, the fastest decoder that there is coupled with Community Center Codec Pack and play
on Windows Media Player Classic. Check sample to be sure.
Enjoy!

Encoder Notes:Looking For Early Access To Anything You Can Provide DVDScr, R5, DVDR, BluRay, Direct
Audio, Music Releases and Seedboxes. We require dedicated servers, so as to do more 
and fast releases of movies.
If You Got anything to offer please contact us at "prg@hush.com".

Face book Fan Page:   
http://www.fb.me/p2pdl